<mxfile host="app.diagrams.net" modified="2023-11-12T18:03:41.237Z" agent="Mozilla/5.0 (Windows NT 10.0; Win64; x64; rv:109.0) Gecko/20100101 Firefox/119.0" etag="z4BSXUSzlqPnFbaXElVZ" version="22.1.0" type="device">
  <diagram name="Seite-1" id="wXZOanlDAg1EenFPm3lP">
    <mxGraphModel dx="1044" dy="643" grid="1" gridSize="10" guides="1" tooltips="1" connect="1" arrows="1" fold="1" page="1" pageScale="1" pageWidth="827" pageHeight="1169" math="0" shadow="0">
      <root>
        <mxCell id="0" />
        <mxCell id="1" parent="0" />
        <mxCell id="-AqpcQuZfyqriuQmnOfk-1" value="Zoobesucher" style="html=1;fontStyle=1" vertex="1" parent="1">
          <mxGeometry x="320" y="80" width="120" height="40" as="geometry" />
        </mxCell>
        <mxCell id="-AqpcQuZfyqriuQmnOfk-2" value="nimmt teil" style="endArrow=none;html=1;endFill=0;verticalAlign=top;spacingBottom=0;labelPosition=center;verticalLabelPosition=middle;align=center;spacingRight=0;spacingTop=0;spacingLeft=10;labelBackgroundColor=none;" edge="1" parent="1" source="-AqpcQuZfyqriuQmnOfk-6" target="-AqpcQuZfyqriuQmnOfk-1">
          <mxGeometry relative="1" as="geometry">
            <mxPoint x="240" y="180" as="sourcePoint" />
            <mxPoint x="380" y="180" as="targetPoint" />
            <mxPoint as="offset" />
          </mxGeometry>
        </mxCell>
        <mxCell id="-AqpcQuZfyqriuQmnOfk-3" value="&lt;font style=&quot;font-size: 16px;&quot;&gt;*&lt;/font&gt;" style="resizable=0;html=1;align=left;verticalAlign=bottom;labelBackgroundColor=none;fontSize=10;spacingBottom=-5;spacingLeft=2;" connectable="0" vertex="1" parent="-AqpcQuZfyqriuQmnOfk-2">
          <mxGeometry x="-1" relative="1" as="geometry">
            <mxPoint x="2" as="offset" />
          </mxGeometry>
        </mxCell>
        <mxCell id="-AqpcQuZfyqriuQmnOfk-4" value="1..5" style="resizable=0;html=1;align=right;verticalAlign=bottom;labelBackgroundColor=none;fontSize=10;spacingLeft=0;spacing=2;spacingBottom=2;spacingRight=8;spacingTop=0;" connectable="0" vertex="1" parent="-AqpcQuZfyqriuQmnOfk-2">
          <mxGeometry x="1" relative="1" as="geometry">
            <mxPoint x="2" as="offset" />
          </mxGeometry>
        </mxCell>
        <mxCell id="-AqpcQuZfyqriuQmnOfk-6" value="FÃ¼hrung" style="html=1;fontStyle=1" vertex="1" parent="1">
          <mxGeometry x="80" y="80" width="120" height="40" as="geometry" />
        </mxCell>
        <mxCell id="-AqpcQuZfyqriuQmnOfk-8" value="" style="triangle;whiteSpace=wrap;html=1;dashed=0;direction=north;fillColor=#000000;aspect=fixed;rotation=-90;" vertex="1" parent="1">
          <mxGeometry x="227" y="110" width="5" height="10" as="geometry" />
        </mxCell>
      </root>
    </mxGraphModel>
  </diagram>
</mxfile>
